<svg width="22" height="25" viewBox="0 0 22 25" fill="none" xmlns="http://www.w3.org/2000/svg">
<g id="Group">
<path id="Vector" d="M22 6.61765C22 10.2725 19.0452 13.2353 15.4 13.2353C11.7549 13.2353 8.80005 10.2725 8.80005 6.61765C8.80005 2.96282 11.7549 0 15.4 0C19.0452 0 22 2.96282 22 6.61765ZM15.9191 3.15721L15.9154 3.15352C15.8459 3.08456 15.766 3.0324 15.6808 2.99704C15.5956 2.96163 15.5023 2.94185 15.4044 2.94127H15.4H15.3956C15.2978 2.94185 15.2045 2.96163 15.1193 2.99704C15.0328 3.03293 14.9518 3.08612 14.8814 3.15662L11.9481 6.09779C11.6618 6.38494 11.6618 6.85052 11.9481 7.13766C12.2345 7.42481 12.6989 7.42481 12.9852 7.13766L14.6667 5.45171V9.55891C14.6667 9.965 14.995 10.2942 15.4 10.2942C15.805 10.2942 16.1334 9.965 16.1334 9.55891V5.45171L17.8148 7.13766C18.1012 7.42481 18.5656 7.42481 18.8518 7.13766C19.1383 6.85052 19.1383 6.38494 18.8518 6.09779L15.9191 3.15721Z" fill="white"/>
<path id="Vector_2" d="M19.0667 13.824V14.7059H13.9333C13.5293 14.7059 13.2016 15.0335 13.2 15.4382V15.4398L13.1996 15.4579C13.199 15.4762 13.1975 15.5063 13.1947 15.5467C13.189 15.6278 13.177 15.7482 13.1526 15.8947C13.1033 16.1913 13.0063 16.5754 12.8191 16.9506C12.6334 17.3229 12.3665 17.6729 11.9797 17.9313C11.5975 18.1869 11.055 18.3823 10.2667 18.3823C9.47832 18.3823 8.93581 18.1869 8.55366 17.9313C8.1669 17.6729 7.89992 17.3229 7.71424 16.9506C7.52714 16.5754 7.42993 16.1913 7.38065 15.8947C7.35629 15.7482 7.34441 15.6278 7.33863 15.5467C7.33575 15.5063 7.33443 15.4762 7.33382 15.4579L7.33335 15.4398C7.33286 15.0342 7.00471 14.7059 6.6 14.7059H1.46667V8.82351C1.46667 7.19914 2.77996 5.88233 4.4 5.88233H7.36622C7.41161 5.37732 7.50329 4.88568 7.63698 4.41174H4.4C1.96995 4.41174 0 6.38696 0 8.82351V20.5882C0 23.0248 1.96995 25 4.4 25H16.1333C18.5635 25 20.5333 23.0248 20.5333 20.5882V12.8571C20.0829 13.2301 19.5914 13.555 19.0667 13.824Z" fill="white"/>
</g>
</svg>
