<svg width="26" height="20" viewBox="0 0 26 20" fill="none" xmlns="http://www.w3.org/2000/svg">
<g id="Group">
<path id="Vector" d="M0 2.5C0 1.11928 1.03932 0 2.3214 0H19.964C21.2462 0 22.2854 1.11928 22.2854 2.5V13.5C22.2854 14.8808 21.2462 16 19.964 16H2.3214C1.03932 16 0 14.8808 0 13.5V2.5ZM5.57135 3V2H3.71423V3C3.71423 3.55228 3.2985 4 2.78567 4H1.85712V6H2.78567C4.32416 6 5.57135 4.65686 5.57135 3ZM14.8569 7.99999C14.8569 5.79086 13.194 4 11.1427 4C9.09138 4 7.42846 5.79086 7.42846 7.99999C7.42846 10.2091 9.09138 12 11.1427 12C13.194 12 14.8569 10.2091 14.8569 7.99999ZM18.5712 2H16.714V3C16.714 4.65686 17.9613 6 19.4997 6H20.4283V4H19.4997C18.987 4 18.5712 3.55228 18.5712 3V2ZM5.57135 13C5.57135 11.3431 4.32416 9.99999 2.78567 9.99999H1.85712V12H2.78567C3.2985 12 3.71423 12.4477 3.71423 13V14H5.57135V13ZM18.5712 14V13C18.5712 12.4477 18.987 12 19.4997 12H20.4283V9.99999H19.4997C17.9613 9.99999 16.714 11.3431 16.714 13V14H18.5712Z" fill="white"/>
<path id="Vector_2" d="M6.50013 20C5.26217 20 4.21283 19.1304 3.8501 17.9274C4.10777 17.9752 4.37269 18 4.64301 18H19.9642C22.2719 18 24.1427 15.9852 24.1427 13.5V4.17072C25.2247 4.58255 25.9998 5.69379 25.9998 7.00001V13.5C25.9998 17.0898 23.2976 20 19.9642 20H6.50013Z" fill="white"/>
</g>
</svg>
