<svg width="17" height="12" viewBox="0 0 17 12" fill="none" xmlns="http://www.w3.org/2000/svg">
<path id="Vector" d="M8.4 0C4.58182 0 1.32109 2.488 0 6C1.32109 9.512 4.58182 12 8.4 12C12.222 12 15.4789 9.512 16.8 6C15.4789 2.488 12.222 0 8.4 0ZM8.4 10C6.29236 10 4.58182 8.208 4.58182 6C4.58182 3.792 6.29236 2 8.4 2C10.5076 2 12.2182 3.792 12.2182 6C12.2182 8.208 10.5076 10 8.4 10ZM8.4 3.6C7.13618 3.6 6.10909 4.676 6.10909 6C6.10909 7.324 7.13618 8.4 8.4 8.4C9.66382 8.4 10.6909 7.324 10.6909 6C10.6909 4.676 9.66382 3.6 8.4 3.6Z" fill="white"/>
</svg>
