<svg width="30" height="30" viewBox="0 0 30 30" fill="none" xmlns="http://www.w3.org/2000/svg">
<path id="Vector" d="M22.509 0C23.5364 0 24.5042 0.197133 25.4122 0.591398C26.3202 0.985663 27.1147 1.5233 27.7957 2.2043C28.4767 2.8853 29.0143 3.67981 29.4086 4.58781C29.8029 5.49582 30 6.46356 30 7.49104V22.4731C30 23.5006 29.8029 24.4743 29.4086 25.3943C29.0143 26.3142 28.4767 27.1147 27.7957 27.7957C27.1147 28.4767 26.3202 29.0143 25.4122 29.4086C24.5042 29.8029 23.5364 30 22.509 30H7.49104C6.46356 30 5.49582 29.8029 4.58781 29.4086C3.67981 29.0143 2.8853 28.4767 2.2043 27.7957C1.5233 27.1147 0.985663 26.3142 0.591398 25.3943C0.197133 24.4743 0 23.5006 0 22.4731V7.49104C0 6.46356 0.197133 5.49582 0.591398 4.58781C0.985663 3.67981 1.5233 2.8853 2.2043 2.2043C2.8853 1.5233 3.67981 0.985663 4.58781 0.591398C5.49582 0.197133 6.46356 0 7.49104 0H22.509ZM20.6093 6.55914H17.4552C16.8339 6.55914 16.2605 6.66667 15.7348 6.88172C15.2091 7.09677 14.7551 7.37754 14.3728 7.72401C13.9904 8.07049 13.6858 8.47073 13.4588 8.92473C13.2318 9.37873 13.1183 9.83274 13.1183 10.2867V12.1864H10.3226V15.914H13.1183V23.4409H16.8817V15.914H19.6774V12.1864H16.8817V11.2545C16.8817 10.9438 16.9952 10.7049 17.2222 10.5376C17.4492 10.3704 17.6464 10.2867 17.8136 10.2867H20.6093V6.55914Z" fill="white"/>
</svg>
