<svg width="21" height="15" viewBox="0 0 21 15" fill="none" xmlns="http://www.w3.org/2000/svg">
<path d="M13.875 12.75C14.4963 12.75 15 13.2537 15 13.875C15 14.4963 14.4963 15 13.875 15H7.125C6.50368 15 6 14.4963 6 13.875C6 13.2537 6.50368 12.75 7.125 12.75H13.875ZM16.875 6.375C17.4963 6.375 18 6.87868 18 7.5C18 8.12132 17.4963 8.625 16.875 8.625H4.125C3.50368 8.625 3 8.12132 3 7.5C3 6.87868 3.50368 6.375 4.125 6.375H16.875ZM19.875 0C20.4963 0 21 0.50368 21 1.125C21 1.74632 20.4963 2.25 19.875 2.25H1.125C0.50368 2.25 0 1.74632 0 1.125C0 0.50368 0.50368 0 1.125 0H19.875Z" fill="#4E4E4E"/>
</svg>
