<svg width="25" height="19" viewBox="0 0 25 19" fill="none" xmlns="http://www.w3.org/2000/svg">
<path id="Vector" d="M0 9.44109C0 8.65897 0.671578 8.02493 1.5 8.02493H19.0739L12.4998 2.47157C11.8824 1.95004 11.8297 1.05476 12.3821 0.471886C12.9345 -0.110989 13.8828 -0.160724 14.5002 0.360802L24.0001 8.38571C24.3181 8.65437 24.4999 9.0382 24.4999 9.44109C24.4999 9.844 24.3181 10.2278 24.0001 10.4965L14.5002 18.5214C13.8828 19.0429 12.9345 18.9933 12.3821 18.4104C11.8297 17.8275 11.8824 16.9321 12.4998 16.4106L19.0739 10.8573H1.5C0.671578 10.8573 0 10.2232 0 9.44109Z" fill="#C34439"/>
</svg>
