<svg width="31" height="30" viewBox="0 0 31 30" fill="none" xmlns="http://www.w3.org/2000/svg">
<path id="Vector" d="M20.2235 15.0179C20.2235 14.6117 20.1638 14.1697 20.0443 13.6918H21.5497V20.9319C21.5497 21.1231 21.484 21.2784 21.3526 21.3978C21.2211 21.5173 21.0599 21.5771 20.8687 21.5771H9.07659C8.88543 21.5771 8.73011 21.5173 8.61064 21.3978C8.49116 21.2784 8.43143 21.1231 8.43143 20.9319V13.6918H9.90096C9.78148 14.1697 9.72175 14.6117 9.72175 15.0179C9.72175 15.7348 9.85914 16.4158 10.1339 17.0609C10.4087 17.7061 10.7851 18.2617 11.263 18.7276C11.7409 19.1935 12.3024 19.5639 12.9476 19.8387C13.5927 20.1135 14.2737 20.2509 14.9906 20.2509C15.7074 20.2509 16.3884 20.1135 17.0336 19.8387C17.6787 19.5639 18.2343 19.1935 18.7002 18.7276C19.1662 18.2617 19.5366 17.7061 19.8114 17.0609C20.0861 16.4158 20.2235 15.7348 20.2235 15.0179ZM14.9906 18.2796C14.5366 18.2796 14.1065 18.1959 13.7002 18.0287C13.294 17.8614 12.9416 17.6284 12.6429 17.3297C12.3442 17.0311 12.1112 16.6846 11.944 16.2903C11.7767 15.8961 11.6931 15.4719 11.6931 15.0179C11.6931 14.5639 11.7767 14.1338 11.944 13.7276C12.1112 13.3214 12.3442 12.9689 12.6429 12.6703C12.9416 12.3716 13.294 12.1386 13.7002 11.9713C14.1065 11.8041 14.5366 11.7204 14.9906 11.7204C15.4446 11.7204 15.8687 11.8041 16.263 11.9713C16.6572 12.1386 17.0037 12.3716 17.3024 12.6703C17.6011 12.9689 17.8341 13.3214 18.0013 13.7276C18.1686 14.1338 18.2522 14.5639 18.2522 15.0179C18.2522 15.4719 18.1686 15.8961 18.0013 16.2903C17.8341 16.6846 17.6011 17.0311 17.3024 17.3297C17.0037 17.6284 16.6572 17.8614 16.263 18.0287C15.8687 18.1959 15.4446 18.2796 14.9906 18.2796ZM20.8687 8.45878C21.0599 8.45878 21.2211 8.51852 21.3526 8.63799C21.484 8.75747 21.5497 8.91278 21.5497 9.10394V11.0753C21.5497 11.2664 21.484 11.4217 21.3526 11.5412C21.2211 11.6607 21.0599 11.7204 20.8687 11.7204H18.8974C18.7062 11.7204 18.5509 11.6607 18.4314 11.5412C18.312 11.4217 18.2522 11.2664 18.2522 11.0753V9.10394C18.2522 8.91278 18.312 8.75747 18.4314 8.63799C18.5509 8.51852 18.7062 8.45878 18.8974 8.45878H20.8687ZM22.625 0C23.6525 0 24.6262 0.197133 25.5461 0.591398C26.4661 0.985663 27.2666 1.5233 27.9476 2.2043C28.6286 2.8853 29.1662 3.67981 29.5605 4.58781C29.9547 5.49582 30.1519 6.46356 30.1519 7.49104V22.4731C30.1519 23.5006 29.9547 24.4743 29.5605 25.3943C29.1662 26.3142 28.6286 27.1147 27.9476 27.7957C27.2666 28.4767 26.4661 29.0143 25.5461 29.4086C24.6262 29.8029 23.6525 30 22.625 30H7.64289C6.61542 30 5.64767 29.8029 4.73967 29.4086C3.83166 29.0143 3.03716 28.4767 2.35616 27.7957C1.67515 27.1147 1.13752 26.3142 0.743253 25.3943C0.348988 24.4743 0.151855 23.5006 0.151855 22.4731V7.49104C0.151855 6.46356 0.348988 5.49582 0.743253 4.58781C1.13752 3.67981 1.67515 2.8853 2.35616 2.2043C3.03716 1.5233 3.83166 0.985663 4.73967 0.591398C5.64767 0.197133 6.61542 0 7.64289 0H22.625ZM23.521 8.45878C23.521 7.9092 23.3299 7.44325 22.9476 7.06093C22.5652 6.67861 22.0993 6.48745 21.5497 6.48745H8.43143C7.88184 6.48745 7.41589 6.67861 7.03358 7.06093C6.65126 7.44325 6.4601 7.9092 6.4601 8.45878V21.5771C6.4601 22.1266 6.65126 22.5926 7.03358 22.9749C7.41589 23.3572 7.88184 23.5484 8.43143 23.5484H21.5497C22.0993 23.5484 22.5652 23.3572 22.9476 22.9749C23.3299 22.5926 23.521 22.1266 23.521 21.5771V8.45878Z" fill="white"/>
</svg>
