<svg width="15" height="15" viewBox="0 0 15 15" fill="none" xmlns="http://www.w3.org/2000/svg">
<path d="M2.14286 0C0.959389 0 0 0.959389 0 2.14286V12.8571C0 14.0406 0.959389 15 2.14286 15H12.8571C14.0406 15 15 14.0406 15 12.8571V2.14286C15 0.959389 14.0406 0 12.8571 0H2.14286ZM4.82143 4.55357C4.82143 4.99737 4.46165 5.35714 4.01786 5.35714C3.57406 5.35714 3.21429 4.99737 3.21429 4.55357C3.21429 4.10978 3.57406 3.75 4.01786 3.75C4.46165 3.75 4.82143 4.10978 4.82143 4.55357ZM4.01786 8.57143C3.57406 8.57143 3.21429 8.21164 3.21429 7.76786C3.21429 7.32406 3.57406 6.96429 4.01786 6.96429C4.46165 6.96429 4.82143 7.32406 4.82143 7.76786C4.82143 8.21164 4.46165 8.57143 4.01786 8.57143ZM4.82143 10.9821C4.82143 11.4259 4.46165 11.7857 4.01786 11.7857C3.57406 11.7857 3.21429 11.4259 3.21429 10.9821C3.21429 10.5384 3.57406 10.1786 4.01786 10.1786C4.46165 10.1786 4.82143 10.5384 4.82143 10.9821ZM6.96429 4.28571H11.25C11.5458 4.28571 11.7857 4.52556 11.7857 4.82143C11.7857 5.11729 11.5458 5.35714 11.25 5.35714H6.96429C6.66842 5.35714 6.42857 5.11729 6.42857 4.82143C6.42857 4.52556 6.66842 4.28571 6.96429 4.28571ZM6.42857 8.03571C6.42857 7.73989 6.66842 7.5 6.96429 7.5H11.25C11.5458 7.5 11.7857 7.73989 11.7857 8.03571C11.7857 8.33154 11.5458 8.57143 11.25 8.57143H6.96429C6.66842 8.57143 6.42857 8.33154 6.42857 8.03571ZM6.96429 10.7143H11.25C11.5458 10.7143 11.7857 10.9542 11.7857 11.25C11.7857 11.5458 11.5458 11.7857 11.25 11.7857H6.96429C6.66842 11.7857 6.42857 11.5458 6.42857 11.25C6.42857 10.9542 6.66842 10.7143 6.96429 10.7143Z"/>
</svg>
