<svg width="31" height="30" viewBox="0 0 31 30" fill="none" xmlns="http://www.w3.org/2000/svg">
<path id="Vector" d="M23.2768 0C24.3043 0 25.272 0.197133 26.18 0.591398C27.088 0.985663 27.8825 1.5233 28.5635 2.2043C29.2445 2.8853 29.7822 3.67981 30.1764 4.58781C30.5707 5.49582 30.7678 6.46356 30.7678 7.49104V22.4731C30.7678 23.5006 30.5707 24.4743 30.1764 25.3943C29.7822 26.3142 29.2445 27.1147 28.5635 27.7957C27.8825 28.4767 27.088 29.0143 26.18 29.4086C25.272 29.8029 24.3043 30 23.2768 30H8.25886C7.23138 30 6.26364 29.8029 5.35564 29.4086C4.44763 29.0143 3.65313 28.4767 2.97212 27.7957C2.29112 27.1147 1.75349 26.3142 1.35922 25.3943C0.964955 24.4743 0.767822 23.5006 0.767822 22.4731V7.49104C0.767822 6.46356 0.964955 5.49582 1.35922 4.58781C1.75349 3.67981 2.29112 2.8853 2.97212 2.2043C3.65313 1.5233 4.44763 0.985663 5.35564 0.591398C6.26364 0.197133 7.23138 0 8.25886 0H23.2768ZM11.0904 11.2545H7.32696V23.4409H11.0904V11.2545ZM9.2266 10.2867C9.7284 10.2867 10.1645 10.1075 10.5348 9.7491C10.9052 9.39068 11.0904 8.94863 11.0904 8.42294C11.0904 7.89725 10.9052 7.4552 10.5348 7.09677C10.1645 6.73835 9.7284 6.55914 9.2266 6.55914C8.70092 6.55914 8.25289 6.73835 7.88252 7.09677C7.51215 7.4552 7.32696 7.89725 7.32696 8.42294C7.32696 8.94863 7.51215 9.39068 7.88252 9.7491C8.25289 10.1075 8.70092 10.2867 9.2266 10.2867ZM24.2087 16.3799C24.2087 15.5197 23.9697 14.6774 23.4918 13.853C23.0139 13.0287 22.3927 12.4014 21.628 11.9713C20.9351 11.589 20.1286 11.3859 19.2087 11.362C18.2887 11.3381 17.4584 11.4934 16.7176 11.828V11.2545H12.9542V23.4409H16.7176V15.9857L18.2589 15.233C18.45 15.1374 18.7129 15.0896 19.0474 15.0896C19.3819 15.0896 19.6328 15.1493 19.8001 15.2688C19.9435 15.3405 20.0868 15.4958 20.2302 15.7348C20.3736 15.9737 20.4452 16.1888 20.4452 16.3799V23.4409H24.2087V16.3799Z" fill="white"/>
</svg>
