<svg width="15" height="12" viewBox="0 0 15 12" fill="none" xmlns="http://www.w3.org/2000/svg">
<path id="Vector" d="M13.5 0H1.5C0.675 0 0.00749999 0.632812 0.00749999 1.40625L0 9.84375C0 10.6172 0.675 11.25 1.5 11.25H13.5C14.325 11.25 15 10.6172 15 9.84375V1.40625C15 0.632812 14.325 0 13.5 0ZM13.2 2.98828L7.8975 6.09609C7.6575 6.23672 7.3425 6.23672 7.1025 6.09609L1.8 2.98828C1.6125 2.87578 1.5 2.68594 1.5 2.48203C1.5 2.01094 2.0475 1.72969 2.475 1.97578L7.5 4.92188L12.525 1.97578C12.9525 1.72969 13.5 2.01094 13.5 2.48203C13.5 2.68594 13.3875 2.87578 13.2 2.98828Z" fill="#BDBDBD"/>
</svg>
