<svg width="20" height="15" viewBox="0 0 20 15" fill="none" xmlns="http://www.w3.org/2000/svg">
<path d="M19.0625 13.0435C19.5802 13.0435 20 13.4815 20 14.0217C20 14.517 19.6473 14.9263 19.1897 14.9911L19.0625 15H0.9375C0.419738 15 0 14.562 0 14.0217C0 13.5265 0.352696 13.1172 0.810288 13.0524L0.9375 13.0435H19.0625ZM19.0625 6.52174C19.5802 6.52174 20 6.95973 20 7.5C20 8.04026 19.5802 8.47826 19.0625 8.47826H0.9375C0.419738 8.47826 0 8.04026 0 7.5C0 6.95973 0.419738 6.52174 0.9375 6.52174H19.0625ZM19.0625 0C19.5802 0 20 0.437987 20 0.978261C20 1.51853 19.5802 1.95652 19.0625 1.95652H0.9375C0.419738 1.95652 0 1.51853 0 0.978261C0 0.437987 0.419738 0 0.9375 0H19.0625Z" fill="#BDBDBD"/>
</svg>
