<svg width="28" height="20" viewBox="0 0 28 20" fill="none" xmlns="http://www.w3.org/2000/svg">
<path d="M26.6875 17.3913C27.4123 17.3913 28 17.9753 28 18.6957C28 19.356 27.5062 19.9017 26.8656 19.9881L26.6875 20H1.3125C0.587633 20 0 19.416 0 18.6957C0 18.0353 0.493774 17.4896 1.1344 17.4032L1.3125 17.3913H26.6875ZM26.6875 8.69565C27.4123 8.69565 28 9.27963 28 10C28 10.7203 27.4123 11.3043 26.6875 11.3043H1.3125C0.587633 11.3043 0 10.7203 0 10C0 9.27963 0.587633 8.69565 1.3125 8.69565H26.6875ZM26.6875 0C27.4123 0 28 0.583983 28 1.30435C28 2.02471 27.4123 2.6087 26.6875 2.6087H1.3125C0.587633 2.6087 0 2.02471 0 1.30435C0 0.583983 0.587633 0 1.3125 0H26.6875Z" fill="#BDBDBD"/>
</svg>
