<svg width="22" height="25" viewBox="0 0 22 25" fill="none" xmlns="http://www.w3.org/2000/svg">
<g id="Group">
<path id="Vector" d="M8.8 6.61764C8.8 2.96282 11.7549 -4.76837e-06 15.4 -4.76837e-06C19.0451 -4.76837e-06 22 2.96282 22 6.61764C22 10.2725 19.0451 13.2353 15.4 13.2353C11.7549 13.2353 8.8 10.2725 8.8 6.61764ZM14.8809 10.0781L14.8846 10.0818C14.9541 10.1507 15.0341 10.2029 15.1193 10.2382C15.2045 10.2737 15.2978 10.2934 15.3956 10.294H15.4H15.4044C15.5022 10.2934 15.5955 10.2737 15.6807 10.2382C15.7673 10.2024 15.8482 10.1492 15.9186 10.0787L18.8519 7.1375C19.1382 6.85035 19.1382 6.38478 18.8519 6.09763C18.5655 5.81048 18.1012 5.81048 17.8149 6.09763L16.1333 7.78358V3.67638C16.1333 3.27029 15.8051 2.94108 15.4 2.94108C14.9951 2.94108 14.6667 3.27029 14.6667 3.67638V7.78358L12.9853 6.09763C12.6988 5.81048 12.2345 5.81048 11.9482 6.09763C11.6618 6.38478 11.6618 6.85035 11.9482 7.1375L14.8809 10.0781Z" fill="white"/>
<path id="Vector_2" d="M19.0667 13.824V14.7059H13.9333C13.5293 14.7059 13.2016 15.0336 13.2 15.4383V15.4399L13.1996 15.458C13.199 15.4762 13.1975 15.5064 13.1947 15.5468C13.189 15.6278 13.177 15.7483 13.1526 15.8947C13.1033 16.1914 13.0063 16.5755 12.8191 16.9506C12.6334 17.323 12.3665 17.673 11.9797 17.9314C11.5975 18.187 11.055 18.3824 10.2667 18.3824C9.47832 18.3824 8.93581 18.187 8.55366 17.9314C8.1669 17.673 7.89992 17.323 7.71424 16.9506C7.52714 16.5755 7.42993 16.1914 7.38065 15.8947C7.35629 15.7483 7.34441 15.6278 7.33863 15.5468C7.33575 15.5064 7.33443 15.4762 7.33382 15.458L7.33335 15.4399C7.33286 15.0343 7.00471 14.7059 6.6 14.7059H1.46667V8.82357C1.46667 7.1992 2.77996 5.88239 4.4 5.88239H7.36622C7.41161 5.37738 7.50329 4.88575 7.63698 4.4118H4.4C1.96995 4.4118 0 6.38703 0 8.82357V20.5883C0 23.0249 1.96995 25 4.4 25H16.1333C18.5635 25 20.5333 23.0249 20.5333 20.5883V12.8572C20.0829 13.2301 19.5914 13.555 19.0667 13.824Z" fill="white"/>
</g>
</svg>
