<svg width="15" height="19" viewBox="0 0 15 19" fill="none" xmlns="http://www.w3.org/2000/svg">
<path d="M3.5625 0.59375C3.5625 0.265834 3.29667 0 2.96875 0C2.64083 0 2.375 0.265834 2.375 0.59375V1.1875H1.78125C0.797489 1.1875 0 1.98499 0 2.96875V17.2188C0 18.2025 0.797489 19 1.78125 19H8.3125V14.8438C8.3125 13.86 9.11003 13.0625 10.0938 13.0625H14.25V2.96875C14.25 1.98499 13.4525 1.1875 12.4688 1.1875H11.875V0.59375C11.875 0.265834 11.6091 0 11.2812 0C10.9534 0 10.6875 0.265834 10.6875 0.59375V1.1875H7.71875V0.59375C7.71875 0.265834 7.45287 0 7.125 0C6.79708 0 6.53125 0.265834 6.53125 0.59375V1.1875H3.5625V0.59375ZM3.5625 6.53125C3.5625 6.20333 3.82833 5.9375 4.15625 5.9375H10.0938C10.4216 5.9375 10.6875 6.20333 10.6875 6.53125C10.6875 6.85917 10.4216 7.125 10.0938 7.125H4.15625C3.82833 7.125 3.5625 6.85917 3.5625 6.53125ZM4.15625 9.5H10.0938C10.4216 9.5 10.6875 9.76588 10.6875 10.0938C10.6875 10.4216 10.4216 10.6875 10.0938 10.6875H4.15625C3.82833 10.6875 3.5625 10.4216 3.5625 10.0938C3.5625 9.76588 3.82833 9.5 4.15625 9.5ZM3.5625 13.6562C3.5625 13.3284 3.82833 13.0625 4.15625 13.0625H6.53125C6.85917 13.0625 7.125 13.3284 7.125 13.6562C7.125 13.9841 6.85917 14.25 6.53125 14.25H4.15625C3.82833 14.25 3.5625 13.9841 3.5625 13.6562Z" fill="#C34439"/>
<path d="M13.8809 14.25H10.0938C9.76588 14.25 9.5 14.5159 9.5 14.8438V18.6309C9.56092 18.5841 9.61899 18.5332 9.67385 18.4783L13.7283 14.4239C13.7832 14.369 13.8341 14.3109 13.8809 14.25Z" fill="#C34439"/>
</svg>
