<svg width="11" height="19" viewBox="0 0 11 19" fill="none" xmlns="http://www.w3.org/2000/svg">
<path d="M0.358295 8.66637C0.371496 8.6545 0.389095 8.64975 0.402296 8.63788L8.88794 0.347321C9.36535 -0.115772 10.1398 -0.115772 10.6172 0.347321C10.6216 0.35207 10.6238 0.356819 10.626 0.361568C10.7416 0.464602 10.835 0.593641 10.8996 0.739672C10.9642 0.8857 10.9984 1.04519 11 1.20701L11 17.7905C10.9975 17.9553 10.9616 18.1175 10.8947 18.2656C10.8278 18.4137 10.7315 18.5442 10.6128 18.6478L10.6172 18.6526C10.377 18.8767 10.0701 19 9.75256 19C9.43506 19 9.12816 18.8767 8.88794 18.6526L0.358295 10.343C0.245958 10.2396 0.155749 10.111 0.0938921 9.96631C0.0320339 9.82158 0 9.66408 0 9.50469C0 9.3453 0.0320339 9.18781 0.0938921 9.04307C0.155749 8.89834 0.245958 8.76982 0.358295 8.66637Z" fill="#4E4E4E"/>
</svg>
