<svg width="11" height="19" viewBox="0 0 11 19" fill="none" xmlns="http://www.w3.org/2000/svg">
<path d="M10.6417 8.66637C10.6285 8.6545 10.6109 8.64975 10.5977 8.63788L2.11206 0.347321C1.63465 -0.115772 0.860224 -0.115772 0.382811 0.347321C0.37841 0.35207 0.376211 0.356819 0.374011 0.361568C0.258409 0.464602 0.165045 0.593641 0.100444 0.739672C0.0358434 0.8857 0.00156357 1.04519 0 1.20701L0 17.7905C0.00246674 17.9553 0.0384235 18.1175 0.105331 18.2656C0.172239 18.4137 0.268465 18.5442 0.387211 18.6478L0.382811 18.6526C0.623026 18.8767 0.92993 19 1.24744 19C1.56494 19 1.87184 18.8767 2.11206 18.6526L10.6417 10.343C10.754 10.2396 10.8443 10.111 10.9061 9.96631C10.968 9.82158 11 9.66408 11 9.50469C11 9.3453 10.968 9.18781 10.9061 9.04307C10.8443 8.89834 10.754 8.76982 10.6417 8.66637Z" fill="#4E4E4E"/>
</svg>
