<svg width="15" height="15" viewBox="0 0 15 15" fill="none" xmlns="http://www.w3.org/2000/svg">
<path id="Vector" d="M6.07698 3.44197C5.88175 1.19489 3.53891 0.0923252 3.43976 0.0473223C3.34707 0.00372454 3.2432 -0.0102049 3.1423 0.00743349C0.437613 0.456439 0.0307854 2.03154 0.0144305 2.097C-0.00782106 2.18822 -0.00428195 2.28383 0.0246523 2.37315C3.25065 12.3883 9.95514 14.2447 12.159 14.8553C12.3286 14.9023 12.4687 14.9402 12.575 14.975C12.6963 15.0146 12.8281 15.007 12.944 14.9535C13.0115 14.9228 14.604 14.1721 14.9935 11.7235C15.0107 11.6166 14.9936 11.507 14.9444 11.4105C14.9096 11.343 14.0766 9.75668 11.7664 9.19619C11.6881 9.17614 11.606 9.17543 11.5273 9.19414C11.4486 9.21285 11.3756 9.2504 11.3146 9.30358C10.5858 9.92646 9.57897 10.5903 9.14455 10.6588C6.23236 9.23404 4.60607 6.50011 4.54474 5.98156C4.50896 5.69006 5.17644 4.66625 5.9441 3.8337C5.99235 3.7813 6.0291 3.71937 6.05199 3.65191C6.07487 3.58444 6.08339 3.51293 6.07698 3.44197Z" fill="#BDBDBD"/>
</svg>
