<svg width="17" height="20" viewBox="0 0 17 20" fill="none" xmlns="http://www.w3.org/2000/svg">
<path d="M0 4.32397C0 4.5755 0.0999182 4.81672 0.277774 4.99458C0.455629 5.17243 0.696853 5.27235 0.948379 5.27235H1.45418V16.479C1.45502 17.3065 1.78406 18.0999 2.36913 18.6851C2.95419 19.2702 3.74749 19.5994 4.57498 19.6005H12.425C13.2525 19.5994 14.0458 19.2702 14.6309 18.6851C15.2159 18.0999 15.545 17.3065 15.5458 16.479V5.27235H16.0516C16.3031 5.27235 16.5444 5.17243 16.7222 4.99458C16.9001 4.81672 17 4.5755 17 4.32397C17 4.07245 16.9001 3.83122 16.7222 3.65337C16.5444 3.47551 16.3031 3.37559 16.0516 3.37559H12.7323V2.39687C12.7323 1.07546 11.6575 0 10.3361 0H6.66394C5.34253 0 4.2677 1.07483 4.2677 2.39687V3.37496H0.948379C0.696853 3.37496 0.455629 3.47488 0.277774 3.65274C0.0999182 3.83059 0 4.07245 0 4.32397ZM6.16446 2.3975C6.16446 2.12121 6.38828 1.89739 6.66394 1.89739H10.3361C10.6117 1.89739 10.8355 2.12121 10.8355 2.3975V3.37559H6.16383V2.39687L6.16446 2.3975ZM3.35094 5.27235H13.6491V16.479C13.6487 16.8036 13.5197 17.1148 13.2902 17.3444C13.0608 17.574 12.7496 17.7032 12.425 17.7037H4.57498C4.25039 17.7032 3.93924 17.574 3.70978 17.3444C3.48032 17.1148 3.35127 16.8036 3.35094 16.479V5.27235Z" fill="white"/>
<path d="M6.14271 15.9568C6.39424 15.9568 6.63546 15.8569 6.81332 15.679C6.99117 15.5011 7.09109 15.2599 7.09109 15.0084V7.96764C7.09109 7.71611 6.99117 7.47489 6.81332 7.29703C6.63546 7.11917 6.39424 7.01926 6.14271 7.01926C5.89119 7.01926 5.64996 7.11917 5.47211 7.29703C5.29425 7.47489 5.19434 7.71611 5.19434 7.96764V15.0084C5.19434 15.2599 5.29425 15.5011 5.47211 15.679C5.64996 15.8569 5.89119 15.9568 6.14271 15.9568ZM10.8568 15.9568C11.1083 15.9568 11.3495 15.8569 11.5274 15.679C11.7052 15.5011 11.8052 15.2599 11.8052 15.0084V7.96764C11.8052 7.71611 11.7052 7.47489 11.5274 7.29703C11.3495 7.11917 11.1083 7.01926 10.8568 7.01926C10.6053 7.01926 10.364 7.11917 10.1862 7.29703C10.0083 7.47489 9.90841 7.71611 9.90841 7.96764V15.0084C9.90841 15.2599 10.0083 15.5011 10.1862 15.679C10.364 15.8569 10.6053 15.9568 10.8568 15.9568Z" fill="white"/>
</svg>
