<svg width="21" height="21" viewBox="0 0 21 21" fill="none" xmlns="http://www.w3.org/2000/svg">
<path id="Vector" d="M8.02421 0C12.4559 0 16.0484 3.62885 16.0484 8.10526C16.0484 9.94489 15.4417 11.6414 14.4193 13.0017L20.4695 19.1132C20.8968 19.5448 20.8968 20.2446 20.4695 20.6763C20.081 21.0687 19.4732 21.1043 19.0448 20.7833L18.9221 20.6763L12.8717 14.5649C11.525 15.5977 9.84544 16.2105 8.02421 16.2105C3.59256 16.2105 0 12.5817 0 8.10526C0 3.62885 3.59256 0 8.02421 0ZM8.02421 2.21053C4.80119 2.21053 2.18842 4.84969 2.18842 8.10526C2.18842 11.3608 4.80119 14 8.02421 14C11.2472 14 13.86 11.3608 13.86 8.10526C13.86 4.84969 11.2472 2.21053 8.02421 2.21053Z" fill="white"/>
</svg>
