<svg width="16" height="15" viewBox="0 0 16 15" fill="none" xmlns="http://www.w3.org/2000/svg">
<path d="M16 2.67857C16 4.1579 14.7208 5.35714 13.1429 5.35714C12.2302 5.35714 11.4175 4.95599 10.8944 4.33152L5.61723 6.80522C5.68054 7.02679 5.71429 7.2597 5.71429 7.5C5.71429 7.74032 5.68053 7.97325 5.6172 8.19493L10.8944 10.6685C11.4175 10.044 12.2302 9.64286 13.1429 9.64286C14.7208 9.64286 16 10.8421 16 12.3214C16 13.8007 14.7208 15 13.1429 15C11.5649 15 10.2857 13.8007 10.2857 12.3214C10.2857 12.0811 10.3194 11.8482 10.3827 11.6266L5.10554 9.15289C4.58247 9.77743 3.76977 10.1786 2.85714 10.1786C1.27919 10.1786 0 8.97932 0 7.5C0 6.02067 1.27919 4.82143 2.85714 4.82143C3.76982 4.82143 4.58255 5.22261 5.10562 5.84715L10.3827 3.37346C10.3194 3.15185 10.2857 2.9189 10.2857 2.67857C10.2857 1.19924 11.5649 0 13.1429 0C14.7208 0 16 1.19924 16 2.67857Z" fill="white"/>
</svg>
