<svg width="20" height="15" viewBox="0 0 20 15" fill="none" xmlns="http://www.w3.org/2000/svg">
<path d="M4.68505 1.12065e-05C4.92653 -0.00116571 5.16966 0.0903585 5.35391 0.274608L9.11428 4.03498C9.48039 4.40109 9.48039 4.99469 9.11428 5.3608C8.74817 5.72691 8.15457 5.72691 7.78846 5.3608L5.62254 3.19488V14.0625C5.62254 14.5802 5.20281 14.9999 4.68505 14.9999C4.16729 14.9999 3.74755 14.5802 3.74755 14.0625V3.20801L1.6004 5.35515C1.23429 5.72127 0.640703 5.72127 0.274592 5.35515C-0.0915308 4.98904 -0.0915308 4.39545 0.274592 4.02933L3.9567 0.347208C4.12859 0.135396 4.39101 1.12065e-05 4.68505 1.12065e-05ZM15.3124 2.16373e-05C15.8302 2.16373e-05 16.2499 0.419757 16.2499 0.937517V11.792L18.3971 9.64486C18.7632 9.27874 19.3567 9.27874 19.7229 9.64486C20.089 10.011 20.089 10.6045 19.7229 10.9706L16.0407 14.6527C15.8689 14.8646 15.6065 15 15.3124 15C15.071 15.0012 14.8279 14.9096 14.6436 14.7253L10.8831 10.965C10.5171 10.5989 10.5171 10.0054 10.8831 9.63924C11.2493 9.27312 11.8429 9.27312 12.209 9.63924L14.3749 11.8051V0.937517C14.3749 0.419757 14.7946 2.16373e-05 15.3124 2.16373e-05Z" fill="#4E4E4E"/>
</svg>
