<svg width="20" height="20" viewBox="0 0 20 20" fill="none" xmlns="http://www.w3.org/2000/svg">
<g id="Group">
<path id="Vector" d="M20 18.9286C20 19.5203 19.5203 20 18.9286 20H2.5C1.11929 20 0 18.8807 0 17.5V1.07143C0 0.4797 0.4797 0 1.07143 0C1.66316 0 2.14286 0.4797 2.14286 1.07143V17.5C2.14286 17.6973 2.30276 17.8571 2.5 17.8571H18.9286C19.5203 17.8571 20 18.3369 20 18.9286Z" fill="white"/>
<path id="Vector_2" d="M12.8572 3.92861C12.8572 3.33688 13.337 2.85718 13.9287 2.85718H18.9287C19.5204 2.85718 20.0001 3.33688 20.0001 3.92861V8.92861C20.0001 9.52034 19.5204 10 18.9287 10C18.337 10 17.8572 9.52034 17.8572 8.92861V6.51522L12.1862 12.1862C11.9854 12.3872 11.7128 12.5 11.4287 12.5C11.1445 12.5 10.872 12.3872 10.671 12.1862L8.57153 10.0868L5.40057 13.2576C4.98216 13.676 4.30376 13.676 3.88534 13.2576C3.46693 12.8392 3.46693 12.1609 3.88534 11.7425L7.81392 7.81385C8.01484 7.61292 8.28737 7.50003 8.57153 7.50003C8.8557 7.50003 9.12821 7.61292 9.32914 7.81385L11.4287 9.91338L16.342 5.00003H13.9287C13.337 5.00003 12.8572 4.52033 12.8572 3.92861Z" fill="white"/>
</g>
</svg>
