<svg width="31" height="30" viewBox="0 0 31 30" fill="none" xmlns="http://www.w3.org/2000/svg">
<path id="Vector" d="M22.8928 0C23.9202 0 24.888 0.197133 25.796 0.591398C26.704 0.985663 27.4985 1.5233 28.1795 2.2043C28.8605 2.8853 29.3981 3.67981 29.7924 4.58781C30.1867 5.49582 30.3838 6.46356 30.3838 7.49104V22.4731C30.3838 23.5006 30.1867 24.4743 29.7924 25.3943C29.3981 26.3142 28.8605 27.1147 28.1795 27.7957C27.4985 28.4767 26.704 29.0143 25.796 29.4086C24.888 29.8029 23.9202 30 22.8928 30H7.87483C6.84735 30 5.87961 29.8029 4.9716 29.4086C4.0636 29.0143 3.26909 28.4767 2.58809 27.7957C1.90709 27.1147 1.36945 26.3142 0.975187 25.3943C0.580922 24.4743 0.383789 23.5006 0.383789 22.4731V7.49104C0.383789 6.46356 0.580922 5.49582 0.975187 4.58781C1.36945 3.67981 1.90709 2.8853 2.58809 2.2043C3.26909 1.5233 4.0636 0.985663 4.9716 0.591398C5.87961 0.197133 6.84735 0 7.87483 0H22.8928ZM22.5343 11.2903C23.2273 10.8124 23.8366 10.1912 24.3623 9.42652C24.0278 9.56989 23.6873 9.68937 23.3408 9.78495C22.9943 9.88053 22.6419 9.95221 22.2834 10C23.072 9.49821 23.5976 8.8172 23.8605 7.95699C23.1436 8.41099 22.379 8.70968 21.5666 8.85305C20.8497 8.08841 19.9537 7.70609 18.8784 7.70609C18.3766 7.70609 17.9047 7.80167 17.4626 7.99283C17.0206 8.18399 16.6383 8.44683 16.3157 8.78136C15.9931 9.11589 15.7362 9.50418 15.5451 9.94624C15.3539 10.3883 15.2583 10.8602 15.2583 11.362C15.2583 11.5054 15.2643 11.6428 15.2763 11.7742C15.2882 11.9056 15.3061 12.043 15.33 12.1864C13.8246 12.1147 12.4268 11.7384 11.1365 11.0573C9.84616 10.3763 8.74699 9.48626 7.83899 8.3871C7.50446 8.93668 7.33719 9.546 7.33719 10.2151C7.33719 10.8363 7.48654 11.4098 7.78522 11.9355C8.08391 12.4612 8.4722 12.8913 8.9501 13.2258C8.66336 13.2258 8.38259 13.184 8.1078 13.1004C7.83301 13.0167 7.5642 12.9152 7.30135 12.7957V12.8315C7.30135 13.7157 7.58212 14.4863 8.14365 15.1434C8.70518 15.8005 9.4041 16.2246 10.2404 16.4158C9.90589 16.4875 9.58331 16.5233 9.27268 16.5233H8.93218L8.59167 16.4516C8.83062 17.1924 9.25476 17.7957 9.86408 18.2617C10.4734 18.7276 11.1843 18.9725 11.9967 18.9964C11.3754 19.4743 10.6765 19.8566 9.89992 20.1434C9.12334 20.4301 8.31688 20.5735 7.48056 20.5735C7.3133 20.5735 7.15798 20.5675 7.01461 20.5556C6.87124 20.5436 6.72788 20.5257 6.58451 20.5018C7.39693 21.0275 8.27507 21.4337 9.21891 21.7204C10.1628 22.0072 11.1484 22.1505 12.1759 22.1505C13.8485 22.1505 15.33 21.8339 16.6203 21.2007C17.9107 20.5675 18.9919 19.7551 19.8641 18.7634C20.7362 17.7718 21.3993 16.6607 21.8533 15.4301C22.3073 14.1995 22.5343 12.9749 22.5343 11.7563V11.2903Z" fill="white"/>
</svg>
