<svg width="15" height="15" viewBox="0 0 15 15" fill="none" xmlns="http://www.w3.org/2000/svg">
<path d="M7.96875 9.375C8.74537 9.375 9.375 10.0046 9.375 10.7812V11.25C9.375 13.0982 7.63172 15 4.6875 15C1.74329 15 0 13.0982 0 11.25V10.7812C0 10.0046 0.629597 9.375 1.40625 9.375H7.96875ZM4.6875 3.28125C6.11136 3.28125 7.26562 4.43552 7.26562 5.85938C7.26562 7.28323 6.11136 8.4375 4.6875 8.4375C3.26364 8.4375 2.10938 7.28323 2.10938 5.85938C2.10938 4.43552 3.26364 3.28125 4.6875 3.28125ZM13.125 0C14.1135 0 14.9233 0.764887 14.9948 1.73507L15 1.875V3.75C15 4.73846 14.2351 5.54828 13.265 5.61985L13.125 5.625H11.7178L10.5947 7.1248C10.0984 7.78687 9.09047 7.51866 8.92903 6.77274L8.91244 6.6681L8.907 6.5625L8.90625 5.56406L8.8335 5.54561C8.15344 5.3408 7.63613 4.76018 7.52306 4.04513L7.50516 3.88993L7.5 3.75V1.875C7.5 0.886537 8.26491 0.0767157 9.23503 0.00514694L9.375 0H13.125Z"/>
</svg>
