<svg width="15" height="15" viewBox="0 0 15 15" fill="none" xmlns="http://www.w3.org/2000/svg">
<path d="M0 1.25C0 0.55965 0.55965 0 1.25 0H13.75C14.4404 0 15 0.55965 15 1.25V2.5C15 3.19035 14.4404 3.75 13.75 3.75H1.25C0.55965 3.75 0 3.19035 0 2.5V1.25Z" fill="#BDBDBD"/>
<path d="M1.25 5V12.5C1.25 13.8807 2.36929 15 3.75 15H11.25C12.6308 15 13.75 13.8807 13.75 12.5V5H1.25ZM6.25 6.25H8.75C9.09518 6.25 9.375 6.52982 9.375 6.875C9.375 7.22018 9.09518 7.5 8.75 7.5H6.25C5.90483 7.5 5.625 7.22018 5.625 6.875C5.625 6.52982 5.90483 6.25 6.25 6.25Z" fill="#BDBDBD"/>
</svg>
