<svg width="15" height="15" viewBox="0 0 15 15" fill="none" xmlns="http://www.w3.org/2000/svg">
<path d="M15 14.1964C15 14.6402 14.6402 15 14.1964 15H1.875C0.839464 15 0 14.1605 0 13.125V0.803571C0 0.359775 0.359775 0 0.803571 0C1.24737 0 1.60714 0.359775 1.60714 0.803571V13.125C1.60714 13.273 1.72707 13.3929 1.875 13.3929H14.1964C14.6402 13.3929 15 13.7526 15 14.1964Z" fill="#BDBDBD"/>
<path d="M9.64299 2.94642C9.64299 2.50263 10.0028 2.14285 10.4466 2.14285H14.1966C14.6404 2.14285 15.0001 2.50263 15.0001 2.94642V6.69642C15.0001 7.14022 14.6404 7.5 14.1966 7.5C13.7528 7.5 13.393 7.14022 13.393 6.69642V4.88638L9.13974 9.1396C8.9891 9.29035 8.78467 9.375 8.57157 9.375C8.35846 9.375 8.15403 9.29035 8.00328 9.1396L6.42871 7.56503L4.05049 9.94317C3.73668 10.257 3.22788 10.257 2.91407 9.94317C2.60026 9.62935 2.60026 9.12064 2.91407 8.80682L5.8605 5.86036C6.01119 5.70966 6.21559 5.625 6.42871 5.625C6.64184 5.625 6.84622 5.70966 6.99692 5.86036L8.57157 7.435L12.2565 3.75H10.4466C10.0028 3.75 9.64299 3.39022 9.64299 2.94642Z" fill="#BDBDBD"/>
</svg>
